<svg width="150" height="21" viewBox="0 0 150 21" fill="none" xmlns="http://www.w3.org/2000/svg">
<mask id="mask0_1_266" style="mask-type:luminance" maskUnits="userSpaceOnUse" x="0" y="0" width="22" height="21">
<path d="M21.8125 0H0.10437V20.7173H21.8125V0Z" fill="white"/>
</mask>
<g mask="url(#mask0_1_266)">
<path d="M19.2598 5.19322L14.046 0.217347C13.9006 0.0786151 13.7044 0 13.4984 0H3.20645C2.77761 0 2.43115 0.330645 2.43115 0.739906V19.9774C2.43115 20.3867 2.77761 20.7173 3.20645 20.7173H18.7123C19.1411 20.7173 19.4876 20.3867 19.4876 19.9774V5.71809C19.4876 5.52155 19.4052 5.33195 19.2598 5.19322ZM17.6995 6.05796H13.1399V1.7064L17.6995 6.05796ZM17.7432 19.0526H4.17557V1.66479H11.4924V6.65914C11.4924 6.91669 11.5996 7.16371 11.7904 7.34585C11.9813 7.52796 12.2401 7.63027 12.51 7.63027H17.7432V19.0526Z" fill="black" fill-opacity="0.75"/>
</g>
<path d="M23.3263 19.3146L28.4336 4.83405H33.0324L37.8572 19.3146H34.0494L33.2245 16.7681H27.9929L27.1681 19.3146H23.3263ZM28.9082 14.2108H32.3997L30.6822 8.91277L28.9082 14.2108ZM40.1671 19.3146V4.83405H50.0539V7.82295H43.7827V10.6608H49.3985V13.6065H43.7827V19.3146H40.1671ZM53.0555 19.3146V4.83405H56.6713V19.3146H53.0555ZM64.1306 4.83405V16.2933H69.8594V19.3146H60.5148V4.83405H64.1306ZM72.2989 19.3146V4.83405H82.4344V7.82295H75.9147V10.6068H82.0276V13.6065H75.9147V16.2933H82.4344V19.3146H72.2989ZM86.0909 4.83405H89.8648L95.9552 13.5958H95.7066V4.83405H99.3224V19.3146H95.8309L89.1078 9.68967H89.7066V19.3146H86.0909V4.83405ZM101.649 19.3146L106.757 4.83405H111.356L116.18 19.3146H112.373L111.548 16.7681H106.316L105.491 19.3146H101.649ZM107.231 14.2108H110.723L109.005 8.91277L107.231 14.2108ZM118.49 4.83405H123.665L127.021 12.5599H126.739L130.094 4.83405H135.066V19.3146H131.428V9.00989H131.925L128.027 17.9658H125.688L121.812 9.03147H122.106V19.3146H118.49V4.83405ZM138.881 19.3146V4.83405H149.017V7.82295H142.497V10.6068H148.61V13.6065H142.497V16.2933H149.017V19.3146H138.881Z" fill="black" fill-opacity="0.75"/>
</svg>
